<?xml version="1.0" encoding="utf-8"?>
<!-- Generator: Adobe Illustrator 24.0.3, SVG Export Plug-In . SVG Version: 6.00 Build 0)  -->
<svg version="1.1" id="Layer_1" xmlns="http://www.w3.org/2000/svg" xmlns:xlink="http://www.w3.org/1999/xlink" x="0px" y="0px"
	 viewBox="0 0 296 72" style="enable-background:new 0 0 296 72;" xml:space="preserve">
<style type="text/css">
	.st0{fill:#414141;}
</style>
<g id="ÉtÉHÅ_x5B_É_x7D_ÉbÉg">
</g>
<g>
	<g>
		<g>
			<g>
				<g>
					<path class="st0" d="M231.4,14.9c0,0,0,17,0,16.9h22.6c0,0.1,0-16.9,0-16.9c0,0,11.1,0,11.2,0c0,0,0,42.2,0,42.3
						c0,0-11.2,0-11.2,0c0,0,0-18.5,0-18.6c0,0.1-22.6,0-22.6,0c0,0.1,0,18.6,0,18.6h-11.2c0,0,0.1-42.3,0-42.3
						C220.2,14.9,231.4,14.9,231.4,14.9z"/>
					<path class="st0" d="M125.2,14.9c0,0.1,0,7.2,0,7.2h-17.1v35.1H96.9V22.1H79.8c0,0,0-7.2,0-7.2
						C79.8,14.9,125.2,14.9,125.2,14.9z"/>
					<path class="st0" d="M168.7,57.1c0,0-12.6,0-12.5,0c0,0-3.7-9.1-3.7-9.1h-21c0,0-3.6,9.1-3.7,9.1c0,0-12.5,0-12.5,0l19.7-42.3
						c0,0,13.7,0,13.7,0L168.7,57.1z M142.1,22.1l-7.8,19.2h15.6L142.1,22.1"/>
					<rect x="274.1" y="14.9" class="st0" width="11.2" height="42.3"/>
					<path class="st0" d="M21.9,14.9c0,0,0,17,0,16.9h22.6c0,0.1,0-16.9,0-16.9c0,0,11.1,0,11.2,0c0,0,0,42.2,0,42.3
						c0,0-11.2,0-11.2,0c0,0,0-18.5,0-18.6c0,0.1-22.6,0-22.6,0c0,0.1,0,18.6,0,18.6H10.7c0,0,0.1-42.3,0-42.3
						C10.7,14.9,21.9,14.9,21.9,14.9z"/>
					<rect x="64.6" y="14.9" class="st0" width="11.2" height="42.3"/>
					<path class="st0" d="M168.3,45.4c-1-2.8-1.5-5.8-1.5-9c0-4.4,0.8-8.7,2.9-12.3c2.2-3.7,5.5-6.5,9.6-8c3.9-1.4,8-2.2,12.4-2.2
						c5,0,9.8,1.1,14.1,3c4,1.7,7.1,5.4,8,9.8c0.2,0.9,0.3,1.8,0.4,2.7h-11.7c0-1.1-0.2-2.2-0.6-3.3c-0.9-2.3-2.8-4.2-5.2-4.9
						c-1.6-0.5-3.2-0.7-4.9-0.7c-1.9,0-3.8,0.3-5.5,1c-2.9,1-5.1,3.3-6.1,6.2c-1,2.8-1.5,5.8-1.5,8.9c0,2.6,0.4,5.1,1.1,7.4
						c0.8,3.1,3.2,5.6,6.1,6.7c1.9,0.7,3.9,1.1,6,1.1c1.8,0,3.5-0.3,5.2-0.8c2.2-0.7,4-2.3,4.9-4.4c0.6-1.4,0.9-2.9,0.9-4.5h11.8
						c-0.1,1.4-0.3,2.7-0.6,4c-1,4.2-3.9,7.7-7.8,9.3c-4.4,1.9-9.3,2.9-14.4,2.9c-4,0-7.8-0.6-11.4-1.7
						C174.9,54.7,170.2,50.8,168.3,45.4z"/>
				</g>
			</g>
		</g>
	</g>
</g>
</svg>
